name rise30.6535peak61.5555fall82.9339.mot
datacolumns 19
datarows 36
range 16.08827000000000 16.14659700000000
endheader
time	ground_force1_vx	ground_force1_vy	ground_force1_vz	ground_force1_px	ground_force1_py	ground_force1_pz	ground_force2_vx	ground_force2_vy	ground_force2_vz	ground_force2_px	ground_force2_py	ground_force2_pz	ground_torque1_x	ground_torque1_y	ground_torque1_z	ground_torque2_x	ground_torque2_y	ground_torque2_z	
16.08827000000000	61.93510300000000	797.70929899999999	60.21288100000000	0.37165500000000	0.00000000000000	0.11905700000000	0.00000000000000	0.00000000000000	0.00000000000000	0.00000000000000	0.00000000000000	0.00000000000000	0.00000000000000	29.32930000000000	0.00000000000000	0.00000000000000	0.00000000000000	0.00000000000000	
16.08993500000000	61.36491700000000	799.86822600000005	60.12914200000000	0.37076300000000	0.00000000000000	0.11904100000000	0.00000000000000	0.00000000000000	0.00000000000000	0.00000000000000	0.00000000000000	0.00000000000000	0.00000000000000	29.27579100000000	0.00000000000000	0.00000000000000	0.00000000000000	0.00000000000000	
16.09159700000000	60.79394800000000	801.84850700000004	60.04280600000000	0.36989400000000	0.00000000000000	0.11902700000000	0.00000000000000	0.00000000000000	0.00000000000000	0.00000000000000	0.00000000000000	0.00000000000000	0.00000000000000	29.22288800000000	0.00000000000000	0.00000000000000	0.00000000000000	0.00000000000000	
16.09326400000000	60.22262600000000	803.64949200000001	59.95428200000000	0.36904700000000	0.00000000000000	0.11901400000000	0.00000000000000	0.00000000000000	0.00000000000000	0.00000000000000	0.00000000000000	0.00000000000000	0.00000000000000	29.17079000000000	0.00000000000000	0.00000000000000	0.00000000000000	0.00000000000000	
16.09493200000000	59.65131700000000	805.27088100000003	59.86391300000000	0.36822200000000	0.00000000000000	0.11900200000000	0.00000000000000	0.00000000000000	0.00000000000000	0.00000000000000	0.00000000000000	0.00000000000000	0.00000000000000	29.11964900000000	0.00000000000000	0.00000000000000	0.00000000000000	0.00000000000000	
16.09661600000000	59.08033400000000	806.71272699999997	59.77197400000000	0.36741600000000	0.00000000000000	0.11899200000000	0.00000000000000	0.00000000000000	0.00000000000000	0.00000000000000	0.00000000000000	0.00000000000000	0.00000000000000	29.06956900000000	0.00000000000000	0.00000000000000	0.00000000000000	0.00000000000000	
16.09826900000000	58.50993400000000	807.97544600000003	59.67868200000000	0.36663000000000	0.00000000000000	0.11898300000000	0.00000000000000	0.00000000000000	0.00000000000000	0.00000000000000	0.00000000000000	0.00000000000000	0.00000000000000	29.02061100000000	0.00000000000000	0.00000000000000	0.00000000000000	0.00000000000000	
16.09993900000000	57.94032200000000	809.05981599999996	59.58419100000000	0.36586100000000	0.00000000000000	0.11897500000000	0.00000000000000	0.00000000000000	0.00000000000000	0.00000000000000	0.00000000000000	0.00000000000000	0.00000000000000	28.97279500000000	0.00000000000000	0.00000000000000	0.00000000000000	0.00000000000000	
16.10160400000000	57.37166100000000	809.96698400000002	59.48860400000000	0.36511000000000	0.00000000000000	0.11896900000000	0.00000000000000	0.00000000000000	0.00000000000000	0.00000000000000	0.00000000000000	0.00000000000000	0.00000000000000	28.92610100000000	0.00000000000000	0.00000000000000	0.00000000000000	0.00000000000000	
16.10327100000000	56.80406800000000	810.69845999999995	59.39197000000000	0.36437300000000	0.00000000000000	0.11896500000000	0.00000000000000	0.00000000000000	0.00000000000000	0.00000000000000	0.00000000000000	0.00000000000000	0.00000000000000	28.88047400000000	0.00000000000000	0.00000000000000	0.00000000000000	0.00000000000000	
16.10493300000000	56.23762500000000	811.25611900000001	59.29429200000000	0.36365000000000	0.00000000000000	0.11896200000000	0.00000000000000	0.00000000000000	0.00000000000000	0.00000000000000	0.00000000000000	0.00000000000000	0.00000000000000	28.83582500000000	0.00000000000000	0.00000000000000	0.00000000000000	0.00000000000000	
16.10660300000000	55.67237800000000	811.64219800000001	59.19553100000000	0.36294000000000	0.00000000000000	0.11896000000000	0.00000000000000	0.00000000000000	0.00000000000000	0.00000000000000	0.00000000000000	0.00000000000000	0.00000000000000	28.79203700000000	0.00000000000000	0.00000000000000	0.00000000000000	0.00000000000000	
16.10826400000000	55.10834600000000	811.85928799999999	59.09561100000000	0.36224000000000	0.00000000000000	0.11896100000000	0.00000000000000	0.00000000000000	0.00000000000000	0.00000000000000	0.00000000000000	0.00000000000000	0.00000000000000	28.74896300000000	0.00000000000000	0.00000000000000	0.00000000000000	0.00000000000000	
16.10993300000000	54.54552000000000	811.91032900000005	58.99442000000000	0.36154900000000	0.00000000000000	0.11896300000000	0.00000000000000	0.00000000000000	0.00000000000000	0.00000000000000	0.00000000000000	0.00000000000000	0.00000000000000	28.70643300000000	0.00000000000000	0.00000000000000	0.00000000000000	0.00000000000000	
16.11159900000000	53.98387200000000	811.79860199999996	58.89181700000000	0.36086600000000	0.00000000000000	0.11896700000000	0.00000000000000	0.00000000000000	0.00000000000000	0.00000000000000	0.00000000000000	0.00000000000000	0.00000000000000	28.66425700000000	0.00000000000000	0.00000000000000	0.00000000000000	0.00000000000000	
16.11327100000000	53.42335600000000	811.52771800000005	58.78763900000000	0.36018800000000	0.00000000000000	0.11897200000000	0.00000000000000	0.00000000000000	0.00000000000000	0.00000000000000	0.00000000000000	0.00000000000000	0.00000000000000	28.62222500000000	0.00000000000000	0.00000000000000	0.00000000000000	0.00000000000000	
16.11493200000000	52.86391300000000	811.10160599999995	58.68170000000000	0.35951400000000	0.00000000000000	0.11898000000000	0.00000000000000	0.00000000000000	0.00000000000000	0.00000000000000	0.00000000000000	0.00000000000000	0.00000000000000	28.58011100000000	0.00000000000000	0.00000000000000	0.00000000000000	0.00000000000000	
16.11660000000000	52.30547400000000	810.52450199999998	58.57379800000000	0.35884300000000	0.00000000000000	0.11898900000000	0.00000000000000	0.00000000000000	0.00000000000000	0.00000000000000	0.00000000000000	0.00000000000000	0.00000000000000	28.53768100000000	0.00000000000000	0.00000000000000	0.00000000000000	0.00000000000000	
16.11827200000000	51.74796700000000	809.80093199999999	58.46372100000000	0.35817100000000	0.00000000000000	0.11900000000000	0.00000000000000	0.00000000000000	0.00000000000000	0.00000000000000	0.00000000000000	0.00000000000000	0.00000000000000	28.49468500000000	0.00000000000000	0.00000000000000	0.00000000000000	0.00000000000000	
16.11993600000000	51.19131800000000	808.93570099999999	58.35124800000000	0.35749900000000	0.00000000000000	0.11901400000000	0.00000000000000	0.00000000000000	0.00000000000000	0.00000000000000	0.00000000000000	0.00000000000000	0.00000000000000	28.45087300000000	0.00000000000000	0.00000000000000	0.00000000000000	0.00000000000000	
16.12160900000000	50.63545100000000	807.93387299999995	58.23615400000000	0.35682300000000	0.00000000000000	0.11902900000000	0.00000000000000	0.00000000000000	0.00000000000000	0.00000000000000	0.00000000000000	0.00000000000000	0.00000000000000	28.40598500000000	0.00000000000000	0.00000000000000	0.00000000000000	0.00000000000000	
16.12326700000000	50.08030000000000	806.80075199999999	58.11821500000000	0.35614200000000	0.00000000000000	0.11904600000000	0.00000000000000	0.00000000000000	0.00000000000000	0.00000000000000	0.00000000000000	0.00000000000000	0.00000000000000	28.35976300000000	0.00000000000000	0.00000000000000	0.00000000000000	0.00000000000000	
16.12493000000000	49.52580300000000	805.54187100000001	57.99720900000000	0.35545400000000	0.00000000000000	0.11906500000000	0.00000000000000	0.00000000000000	0.00000000000000	0.00000000000000	0.00000000000000	0.00000000000000	0.00000000000000	28.31195000000000	0.00000000000000	0.00000000000000	0.00000000000000	0.00000000000000	
16.12661500000000	48.97191100000000	804.16296299999999	57.87292200000000	0.35475700000000	0.00000000000000	0.11908600000000	0.00000000000000	0.00000000000000	0.00000000000000	0.00000000000000	0.00000000000000	0.00000000000000	0.00000000000000	28.26229000000000	0.00000000000000	0.00000000000000	0.00000000000000	0.00000000000000	
16.12826800000000	48.41858600000000	802.66994999999997	57.74514800000000	0.35405000000000	0.00000000000000	0.11910900000000	0.00000000000000	0.00000000000000	0.00000000000000	0.00000000000000	0.00000000000000	0.00000000000000	0.00000000000000	28.21053600000000	0.00000000000000	0.00000000000000	0.00000000000000	0.00000000000000	
16.12993100000000	47.86580600000000	801.06891599999994	57.61369500000000	0.35333100000000	0.00000000000000	0.11913500000000	0.00000000000000	0.00000000000000	0.00000000000000	0.00000000000000	0.00000000000000	0.00000000000000	0.00000000000000	28.15644500000000	0.00000000000000	0.00000000000000	0.00000000000000	0.00000000000000	
16.13161100000000	47.31356500000000	799.36608999999999	57.47838500000000	0.35259700000000	0.00000000000000	0.11916200000000	0.00000000000000	0.00000000000000	0.00000000000000	0.00000000000000	0.00000000000000	0.00000000000000	0.00000000000000	28.09978800000000	0.00000000000000	0.00000000000000	0.00000000000000	0.00000000000000	
16.13327200000000	46.76187600000000	797.56782299999998	57.33905800000000	0.35184800000000	0.00000000000000	0.11919100000000	0.00000000000000	0.00000000000000	0.00000000000000	0.00000000000000	0.00000000000000	0.00000000000000	0.00000000000000	28.04034500000000	0.00000000000000	0.00000000000000	0.00000000000000	0.00000000000000	
16.13494200000000	46.21077100000000	795.68056700000000	57.19557300000000	0.35108200000000	0.00000000000000	0.11922300000000	0.00000000000000	0.00000000000000	0.00000000000000	0.00000000000000	0.00000000000000	0.00000000000000	0.00000000000000	27.97790900000000	0.00000000000000	0.00000000000000	0.00000000000000	0.00000000000000	
16.13661200000000	45.66030200000000	793.71085400000004	57.04780900000000	0.35029700000000	0.00000000000000	0.11925600000000	0.00000000000000	0.00000000000000	0.00000000000000	0.00000000000000	0.00000000000000	0.00000000000000	0.00000000000000	27.91229100000000	0.00000000000000	0.00000000000000	0.00000000000000	0.00000000000000	
16.13826300000000	45.11054300000000	791.66527199999996	56.89566700000000	0.34949200000000	0.00000000000000	0.11929200000000	0.00000000000000	0.00000000000000	0.00000000000000	0.00000000000000	0.00000000000000	0.00000000000000	0.00000000000000	27.84331600000000	0.00000000000000	0.00000000000000	0.00000000000000	0.00000000000000	
16.13993400000000	44.56158900000000	789.55044699999996	56.73907100000000	0.34866500000000	0.00000000000000	0.11932900000000	0.00000000000000	0.00000000000000	0.00000000000000	0.00000000000000	0.00000000000000	0.00000000000000	0.00000000000000	27.77082800000000	0.00000000000000	0.00000000000000	0.00000000000000	0.00000000000000	
16.14160900000000	44.01355500000000	787.37301700000000	56.57797200000000	0.34781500000000	0.00000000000000	0.11936900000000	0.00000000000000	0.00000000000000	0.00000000000000	0.00000000000000	0.00000000000000	0.00000000000000	0.00000000000000	27.69468700000000	0.00000000000000	0.00000000000000	0.00000000000000	0.00000000000000	
16.14326500000000	43.46657800000000	785.13961500000005	56.41234200000000	0.34694000000000	0.00000000000000	0.11941100000000	0.00000000000000	0.00000000000000	0.00000000000000	0.00000000000000	0.00000000000000	0.00000000000000	0.00000000000000	27.61477700000000	0.00000000000000	0.00000000000000	0.00000000000000	0.00000000000000	
16.14493900000000	42.92081700000000	782.85684800000001	56.24218000000000	0.34604100000000	0.00000000000000	0.11945400000000	0.00000000000000	0.00000000000000	0.00000000000000	0.00000000000000	0.00000000000000	0.00000000000000	0.00000000000000	27.53099800000000	0.00000000000000	0.00000000000000	0.00000000000000	0.00000000000000	
16.14659700000000	42.37644700000000	780.53127400000005	56.06750800000000	0.34511500000000	0.00000000000000	0.11950000000000	0.00000000000000	0.00000000000000	0.00000000000000	0.00000000000000	0.00000000000000	0.00000000000000	0.00000000000000	27.44327500000000	0.00000000000000	0.00000000000000	0.00000000000000	0.00000000000000	
